<svg width="200" height="200" xmlns="http://www.w3.org/2000/svg" viewBox="0 0 200 200">
  <!-- Tree trunk/branches -->
  <g fill="none" stroke="#4A90E2" stroke-width="6" stroke-linecap="round">
    <!-- Main trunk -->
    <line x1="100" y1="140" x2="100" y2="80" />
    
    <!-- Left branch -->
    <path d="M 100 100 Q 70 95 50 100" />
    
    <!-- Right branch -->
    <path d="M 100 100 Q 130 95 150 100" />
    
    <!-- Center branch -->
    <line x1="100" y1="80" x2="100" y2="50" />
  </g>
  
  <!-- Dots/Leaves -->
  <g fill="#4A90E2">
    <!-- Top layer -->
    <circle cx="100" cy="40" r="4" />
    <circle cx="90" cy="48" r="3.5" />
    <circle cx="110" cy="48" r="3.5" />
    <circle cx="85" cy="56" r="3" />
    <circle cx="115" cy="56" r="3" />
    
    <!-- Second layer -->
    <circle cx="70" cy="65" r="4" />
    <circle cx="85" cy="68" r="3.5" />
    <circle cx="100" cy="70" r="4" />
    <circle cx="115" cy="68" r="3.5" />
    <circle cx="130" cy="65" r="4" />
    
    <!-- Third layer -->
    <circle cx="60" cy="78" r="3.5" />
    <circle cx="75" cy="82" r="4" />
    <circle cx="90" cy="85" r="4" />
    <circle cx="100" cy="87" r="4.5" />
    <circle cx="110" cy="85" r="4" />
    <circle cx="125" cy="82" r="4" />
    <circle cx="140" cy="78" r="3.5" />
    
    <!-- Fourth layer -->
    <circle cx="50" cy="92" r="3.5" />
    <circle cx="65" cy="95" r="4" />
    <circle cx="80" cy="98" r="4" />
    <circle cx="95" cy="100" r="4.5" />
    <circle cx="105" cy="100" r="4.5" />
    <circle cx="120" cy="98" r="4" />
    <circle cx="135" cy="95" r="4" />
    <circle cx="150" cy="92" r="3.5" />
    
    <!-- Fifth layer (widest) -->
    <circle cx="45" cy="108" r="3" />
    <circle cx="58" cy="110" r="3.5" />
    <circle cx="72" cy="112" r="4" />
    <circle cx="86" cy="114" r="4" />
    <circle cx="100" cy="115" r="4.5" />
    <circle cx="114" cy="114" r="4" />
    <circle cx="128" cy="112" r="4" />
    <circle cx="142" cy="110" r="3.5" />
    <circle cx="155" cy="108" r="3" />
  </g>
</svg>
